<?xml version="1.0" encoding="UTF-8"?>
<svg xmlns="http://www.w3.org/2000/svg" xmlns:xlink="http://www.w3.org/1999/xlink"
     width="500" height="220" viewBox="0 0 500 220">
<defs>
</defs>
<rect x="0" y="0" width="500" height="220" fill="white" />
<path d="M25.0,132.5 L66.36363636363637,113.75" stroke="black" />
<path d="M66.36363636363637,113.75 L107.72727272727275,104.375" stroke="black" />
<path d="M107.72727272727273,104.375 L149.0909090909091,95.0" stroke="black" />
<path d="M149.0909090909091,95.0 L190.45454545454547,38.75" stroke="black" />
<path d="M190.45454545454547,38.75 L231.81818181818184,85.625" stroke="black" />
<path d="M231.81818181818184,85.625 L273.1818181818182,104.375" stroke="black" />
<path d="M273.1818181818182,104.375 L314.54545454545456,170.0" stroke="black" />
<path d="M314.54545454545456,170.0 L355.90909090909093,151.25" stroke="black" />
<path d="M355.90909090909093,151.25 L397.2727272727273,104.375" stroke="black" />
<path d="M397.2727272727273,104.375 L438.6363636363637,85.625" stroke="black" />
<path d="M438.6363636363637,85.625 L480.00000000000006,66.875" stroke="black" />
<path d="M25,170 L25,0" stroke="black" />
<path d="M25,170 L480,170" stroke="black" />
<path d="M20,20.0 L30,20.0" stroke="black" />
<text x="15" y="23.0" font-size="8" text-anchor="end">12</text>
<path d="M20,57.5 L30,57.5" stroke="black" />
<text x="15" y="60.5" font-size="8" text-anchor="end">8</text>
<path d="M20,95.0 L30,95.0" stroke="black" />
<text x="15" y="98.0" font-size="8" text-anchor="end">4</text>
<path d="M20,132.5 L30,132.5" stroke="black" />
<text x="15" y="135.5" font-size="8" text-anchor="end">0</text>
<path d="M20,170.0 L30,170.0" stroke="black" />
<text x="15" y="173.0" font-size="8" text-anchor="end">-4</text>
<path d="M25.0,165 L25.0,175" stroke="black" />
<text x="25.0" y="190" font-size="8" text-anchor="middle">0</text>
<path d="M66.36363636363637,165 L66.36363636363637,175" stroke="black" />
<text x="66.36363636363637" y="190" font-size="8" text-anchor="middle">1</text>
<path d="M107.72727272727273,165 L107.72727272727273,175" stroke="black" />
<text x="107.72727272727273" y="190" font-size="8" text-anchor="middle">2</text>
<path d="M149.0909090909091,165 L149.0909090909091,175" stroke="black" />
<text x="149.0909090909091" y="190" font-size="8" text-anchor="middle">3</text>
<path d="M190.45454545454547,165 L190.45454545454547,175" stroke="black" />
<text x="190.45454545454547" y="190" font-size="8" text-anchor="middle">4</text>
<path d="M231.81818181818184,165 L231.81818181818184,175" stroke="black" />
<text x="231.81818181818184" y="190" font-size="8" text-anchor="middle">5</text>
<path d="M273.1818181818182,165 L273.1818181818182,175" stroke="black" />
<text x="273.1818181818182" y="190" font-size="8" text-anchor="middle">6</text>
<path d="M314.54545454545456,165 L314.54545454545456,175" stroke="black" />
<text x="314.54545454545456" y="190" font-size="8" text-anchor="middle">7</text>
<path d="M355.90909090909093,165 L355.90909090909093,175" stroke="black" />
<text x="355.90909090909093" y="190" font-size="8" text-anchor="middle">8</text>
<path d="M397.2727272727273,165 L397.2727272727273,175" stroke="black" />
<text x="397.2727272727273" y="190" font-size="8" text-anchor="middle">9</text>
<path d="M438.6363636363637,165 L438.6363636363637,175" stroke="black" />
<text x="438.6363636363637" y="190" font-size="8" text-anchor="middle">10</text>
<path d="M480.00000000000006,165 L480.00000000000006,175" stroke="black" />
<text x="480.00000000000006" y="190" font-size="8" text-anchor="middle">11</text>
</svg>