<?xml version="1.0" encoding="UTF-8"?>
<svg xmlns="http://www.w3.org/2000/svg" xmlns:xlink="http://www.w3.org/1999/xlink" width="1000" height="620" viewBox="0 0 1000 620"><defs></defs>
<rect x="0" y="0" width="1000" height="620" fill="white" stroke="none"/>
<style>.y_axis { stroke: black; stroke-width: 1; transition: stroke 0.2s, stroke-width 0.2s; }</style>
                <path class="y_axis" d="M50,570 L50,20" />
<style>.tick { stroke: black; stroke-width: 1; transition: stroke 0.2s, stroke-width 0.2s; }</style>
                <path class="tick" d="M50,570.0 L35.714285714285715,570.0" />
<text x="33.333333333333336" y="572.0" font-size="8" text-anchor="end">2.0</text>
<path class="tick" d="M50,437.5 L35.714285714285715,437.5" />
<text x="33.333333333333336" y="439.5" font-size="8" text-anchor="end">2.5</text>
<path class="tick" d="M50,305.0 L35.714285714285715,305.0" />
<text x="33.333333333333336" y="307.0" font-size="8" text-anchor="end">3.0</text>
<path class="tick" d="M50,172.5 L35.714285714285715,172.5" />
<text x="33.333333333333336" y="174.5" font-size="8" text-anchor="end">3.5</text>
<path class="tick" d="M50,40.0 L35.714285714285715,40.0" />
<text x="33.333333333333336" y="42.0" font-size="8" text-anchor="end">4.0</text>
<style>.x_axis { stroke: black; stroke-width: 1; transition: stroke 0.2s, stroke-width 0.2s; }</style>
                <path class="x_axis" d="M50,570 L980,570" />
<text x="205.0" y="590" font-size="12" text-anchor="middle">One</text>
<text x="515.0" y="590" font-size="12" text-anchor="middle">Two</text>
<text x="825.0" y="590" font-size="12" text-anchor="middle">Three</text>
<style>.bottom_tick { stroke: black; stroke-width: 1; transition: stroke 0.2s, stroke-width 0.2s; }</style>
                <path class="bottom_tick" d="M360.0,570 L360.0,595.0" />
<path class="bottom_tick" d="M670.0,570 L670.0,595.0" />
<path class="bottom_tick" d="M980.0,570 L980.0,595.0" />
<rect x="50.0" y="20.0" width="310.0" height="550.0" fill="gainsboro" stroke="black"/>
<rect x="360.0" y="20.0" width="310.0" height="550.0" fill="gainsboro" stroke="black"/>
<rect x="670.0" y="20.0" width="310.0" height="550.0" fill="gainsboro" stroke="black"/>
</svg>
