<?xml version="1.0" encoding="UTF-8"?>
<svg xmlns="http://www.w3.org/2000/svg" xmlns:xlink="http://www.w3.org/1999/xlink" width="800" height="220" viewBox="0 0 800 220"><defs></defs>
<rect x="0" y="0" width="800" height="220" fill="white" />
<path d="M80.0,200.0 L196.66666666666669,170.0" stroke="black" />
<path d="M196.66666666666669,170.0 L313.33333333333337,140.0" stroke="black" />
<path d="M313.33333333333337,140.0 L430.00000000000006,110.0" stroke="black" />
<path d="M430.0,110.0 L546.6666666666666,80.0" stroke="black" />
<path d="M546.6666666666667,80.0 L663.3333333333334,50.0" stroke="black" />
<path d="M663.3333333333334,50.0 L780.0,200.0" stroke="black" />
<path d="M80,200 L80,20.0" stroke="black" />
<path d="M80,200 L780,200" stroke="black" />
<path d="M75,20.0 L85,20.0" stroke="black" />
<text x="70" y="23.0" font-size="8" text-anchor="end">7</text><path d="M75,110.0 L85,110.0" stroke="black" />
<text x="70" y="113.0" font-size="8" text-anchor="end">4</text><path d="M75,200.0 L85,200.0" stroke="black" />
<text x="70" y="203.0" font-size="8" text-anchor="end">1</text><path d="M80.0,195 L80.0,205" stroke="black" />
<text x="80.0" y="220" font-size="8" text-anchor="middle">0</text><path d="M196.66666666666669,195 L196.66666666666669,205" stroke="black" />
<text x="196.66666666666669" y="220" font-size="8" text-anchor="middle">1</text><path d="M313.33333333333337,195 L313.33333333333337,205" stroke="black" />
<text x="313.33333333333337" y="220" font-size="8" text-anchor="middle">2</text><path d="M430.0,195 L430.0,205" stroke="black" />
<text x="430.0" y="220" font-size="8" text-anchor="middle">3</text><path d="M546.6666666666667,195 L546.6666666666667,205" stroke="black" />
<text x="546.6666666666667" y="220" font-size="8" text-anchor="middle">4</text><path d="M663.3333333333334,195 L663.3333333333334,205" stroke="black" />
<text x="663.3333333333334" y="220" font-size="8" text-anchor="middle">5</text><path d="M780.0,195 L780.0,205" stroke="black" />
<text x="780.0" y="220" font-size="8" text-anchor="middle">6</text></svg>
