<?xml version="1.0" encoding="UTF-8"?>
<svg xmlns="http://www.w3.org/2000/svg" xmlns:xlink="http://www.w3.org/1999/xlink" width="1000" height="1000" viewBox="0 0 1000 1000"><defs></defs>
<rect x="0" y="0" width="1000" height="1020" fill="white" stroke="none"/>
<circle cx="500.0" cy="500.0" r="375" fill="gainsboro"/>
<path d="M 500.0 500.0 L 499.99999999999994 125.0 A 375 375 0 0 1 575.4869450332475 132.67627203031458 Z" fill="cornsilk" stroke="black" stroke-width="1" id=""/>
<rect x="40" y="980" width="12" height="12" fill="cornsilk" stroke="black"/>
<text x="55" y="992" font-size="12" text-anchor="start">thing_one</text>
<path d="M 500.0 500.0 L 575.4869450332475 132.67627203031458 A 375 375 0 0 1 714.2255806605473 192.2137095472715 Z" fill="cornflowerblue" stroke="black" stroke-width="1" id=""/>
<rect x="408.0" y="980" width="12" height="12" fill="cornflowerblue" stroke="black"/>
<text x="423.0" y="992" font-size="12" text-anchor="start">thing_two</text>
<path d="M 500.0 500.0 L 714.2255806605473 192.2137095472715 A 375 375 0 0 1 870.6756216230418 443.21458343578394 Z" fill="chocolate" stroke="black" stroke-width="1" id=""/>
<rect x="776.0" y="980" width="12" height="12" fill="chocolate" stroke="black"/>
<text x="791.0" y="992" font-size="12" text-anchor="start">thing_three</text>
<path d="M 500.0 500.0 L 870.6756216230418 443.21458343578394 A 375 375 0 0 1 537.9381207452867 873.0759962719608 Z" fill="indianred" stroke="black" stroke-width="1" id=""/>
<rect x="40" y="960" width="12" height="12" fill="indianred" stroke="black"/>
<text x="55" y="972" font-size="12" text-anchor="start">thing_four</text>
<path d="M 500.0 500.0 L 537.9381207452867 873.0759962719608 A 375 375 0 1 1 499.99999999999983 125.0 Z" fill="lavender" stroke="black" stroke-width="1" id=""/>
<rect x="408.0" y="960" width="12" height="12" fill="lavender" stroke="black"/>
<text x="423.0" y="972" font-size="12" text-anchor="start">thing_five</text>
</svg>
