<?xml version="1.0" encoding="UTF-8"?>
<svg xmlns="http://www.w3.org/2000/svg" xmlns:xlink="http://www.w3.org/1999/xlink" width="1000" height="620" viewBox="0 0 1000 620"><defs></defs>
<rect x="0" y="0" width="1000" height="620" fill="white" stroke="none"/>
<style>.main_line { stroke: black; stroke-width: 1; transition: stroke 0.2s, stroke-width 0.2s; }</style>
                <script>
                    window.onload = function() {
                        document.querySelectorAll(".main_line").forEach(line => {
                            line.addEventListener("mouseenter", function () {
                                document.querySelectorAll(".main_line").forEach(l => {
                                    l.style.stroke = "red";
                                    l.style.strokeWidth = "4px";
                                });
                            });
                            line.addEventListener("mouseleave", function () {
                                document.querySelectorAll(".main_line").forEach(l => {
                                    l.style.stroke = "black";
                                    l.style.strokeWidth = "2px";
                                });
                            });
                        });
                    };
                    </script><path class="main_line" d="M50,570.0 L360.0,393.33333333333337" />
<path class="main_line" d="M360.0,393.33333333333337 L670.0,216.66666666666669" />
<path class="main_line" d="M670.0,216.66666666666669 L980.0,40.0" />
<style>.x_axis { stroke: black; stroke-width: 1; transition: stroke 0.2s, stroke-width 0.2s; }</style>
                <path class="x_axis" d="M50,570 L50,20" />
<style>.tick { stroke: black; stroke-width: 1; transition: stroke 0.2s, stroke-width 0.2s; }</style>
                <path class="tick" d="M50,570.0 L35.714285714285715,570.0" />
<text x="33.333333333333336" y="572.0" font-size="8" text-anchor="end">1.0</text>
<path class="tick" d="M50,481.6666666666667 L35.714285714285715,481.6666666666667" />
<text x="33.333333333333336" y="483.6666666666667" font-size="8" text-anchor="end">1.5</text>
<path class="tick" d="M50,393.33333333333337 L35.714285714285715,393.33333333333337" />
<text x="33.333333333333336" y="395.33333333333337" font-size="8" text-anchor="end">2.0</text>
<path class="tick" d="M50,305.00000000000006 L35.714285714285715,305.00000000000006" />
<text x="33.333333333333336" y="307.00000000000006" font-size="8" text-anchor="end">2.5</text>
<path class="tick" d="M50,216.66666666666674 L35.714285714285715,216.66666666666674" />
<text x="33.333333333333336" y="218.66666666666674" font-size="8" text-anchor="end">3.0</text>
<path class="tick" d="M50,128.33333333333343 L35.714285714285715,128.33333333333343" />
<text x="33.333333333333336" y="130.33333333333343" font-size="8" text-anchor="end">3.5</text>
<path class="tick" d="M50,40.000000000000085 L35.714285714285715,40.000000000000085" />
<text x="33.333333333333336" y="42.000000000000085" font-size="8" text-anchor="end">4.0</text>
<path class="x_axis" d="M50,570 L980,570" />
<path class="tick" d="M50.0,570 L50.0,575" />
<text x="50.0" y="585" font-size="8" text-anchor="middle">0.0</text>
<path class="tick" d="M205.0,570 L205.0,575" />
<text x="205.0" y="585" font-size="8" text-anchor="middle">0.5</text>
<path class="tick" d="M360.0,570 L360.0,575" />
<text x="360.0" y="585" font-size="8" text-anchor="middle">1.0</text>
<path class="tick" d="M515.0,570 L515.0,575" />
<text x="515.0" y="585" font-size="8" text-anchor="middle">1.5</text>
<path class="tick" d="M670.0,570 L670.0,575" />
<text x="670.0" y="585" font-size="8" text-anchor="middle">2.0</text>
<path class="tick" d="M825.0,570 L825.0,575" />
<text x="825.0" y="585" font-size="8" text-anchor="middle">2.5</text>
<path class="tick" d="M980.0,570 L980.0,575" />
<text x="980.0" y="585" font-size="8" text-anchor="middle">3.0</text>
</svg>
