<?xml version="1.0" encoding="UTF-8"?>
<svg xmlns="http://www.w3.org/2000/svg" xmlns:xlink="http://www.w3.org/1999/xlink" width="500" height="500" viewBox="0 0 500 500"><defs></defs>
<rect x="0" y="0" width="500" height="520" fill="white" stroke="none"/>
<circle cx="250.0" cy="250.0" r="188" fill="gainsboro"/>
<path d="M 250.0 250.0 L 249.99999999999997 62.0 A 188 188 0 0 1 287.84412177666803 65.84837104453104 Z" fill="cornsilk" stroke="black" stroke-width="1" id=""/>
<path d="M 250.0 250.0 L 287.84412177666803 65.84837104453104 A 188 188 0 0 1 357.39842443782106 95.69647305303212 Z" fill="cornflowerblue" stroke="black" stroke-width="1" id=""/>
<path d="M 250.0 250.0 L 357.39842443782106 95.69647305303212 A 188 188 0 0 1 435.83204497368496 221.53157782913968 Z" fill="chocolate" stroke="black" stroke-width="1" id=""/>
<path d="M 250.0 250.0 L 435.83204497368496 221.53157782913968 A 188 188 0 0 1 269.01964453363706 437.0354327976763 Z" fill="indianred" stroke="black" stroke-width="1" id=""/>
<path d="M 250.0 250.0 L 269.01964453363706 437.0354327976763 A 188 188 0 1 1 249.99999999999991 62.0 Z" fill="lavender" stroke="black" stroke-width="1" id=""/>
</svg>
