<?xml version="1.0" encoding="UTF-8"?>
<svg xmlns="http://www.w3.org/2000/svg" xmlns:xlink="http://www.w3.org/1999/xlink" width="600" height="420" viewBox="0 0 600 420"><defs></defs>
<rect x="0" y="0" width="600" height="420" fill="white" stroke="none">
  <title></title>
</rect><style>.y_axis { stroke: black; stroke-width: 1; transition: stroke 0.2s, stroke-width 0.2s; }</style>
                <path class="y_axis" d="M50,370 L50,20" />
<style>.tick { stroke: black; stroke-width: 1; transition: stroke 0.2s, stroke-width 0.2s; }</style>
                <path class="tick" d="M50,370.0 L35.714285714285715,370.0" />
<text x="33.333333333333336" y="372.0" font-size="8" text-anchor="end">1.0</text>
<path class="tick" d="M50,260.0 L35.714285714285715,260.0" />
<text x="33.333333333333336" y="262.0" font-size="8" text-anchor="end">2.0</text>
<path class="tick" d="M50,150.0 L35.714285714285715,150.0" />
<text x="33.333333333333336" y="152.0" font-size="8" text-anchor="end">3.0</text>
<path class="tick" d="M50,40.0 L35.714285714285715,40.0" />
<text x="33.333333333333336" y="42.0" font-size="8" text-anchor="end">4.0</text>
<style>.x_axis { stroke: black; stroke-width: 1; transition: stroke 0.2s, stroke-width 0.2s; }</style>
                <path class="x_axis" d="M50,370 L580,370" />
<text x="116.25" y="390" font-size="12" text-anchor="middle">One</text>
<text x="248.75" y="390" font-size="12" text-anchor="middle">Two</text>
<text x="381.25" y="390" font-size="12" text-anchor="middle">Three</text>
<text x="513.75" y="390" font-size="12" text-anchor="middle">Four</text>
<style>.bottom_tick { stroke: black; stroke-width: 1; transition: stroke 0.2s, stroke-width 0.2s; }</style>
                <path class="bottom_tick" d="M182.5,370 L182.5,395.0" />
<path class="bottom_tick" d="M315.0,370 L315.0,395.0" />
<path class="bottom_tick" d="M447.5,370 L447.5,395.0" />
<path class="bottom_tick" d="M580.0,370 L580.0,395.0" />
<rect x="50.0" y="370.0" width="132.5" height="0.0" fill="gainsboro" stroke="black">
  <title>One</title>
</rect><rect x="182.5" y="260.0" width="132.5" height="110.0" fill="gainsboro" stroke="black">
  <title>Two</title>
</rect><rect x="315.0" y="150.0" width="132.5" height="220.0" fill="gainsboro" stroke="black">
  <title>Three</title>
</rect><rect x="447.5" y="40.0" width="132.5" height="330.0" fill="gainsboro" stroke="black">
  <title>Four</title>
</rect></svg>
