<?xml version="1.0" encoding="UTF-8"?>
<svg xmlns="http://www.w3.org/2000/svg" xmlns:xlink="http://www.w3.org/1999/xlink"
     width="1000" height="420" viewBox="0 0 1000 420">
<defs>
</defs>
<rect x="0" y="0" width="1000" height="420" fill="white" />
<path d="M25.0,370.0 L84.6875,283.1782945736434" stroke="black" />
<path d="M84.6875,283.1782945736434 L144.375,239.7674418604651" stroke="black" />
<path d="M144.375,239.7674418604651 L204.0625,218.06201550387598" stroke="black" />
<path d="M204.0625,218.06201550387598 L263.75,207.2093023255814" stroke="black" />
<path d="M263.75,207.2093023255814 L323.4375,201.7829457364341" stroke="black" />
<path d="M323.4375,201.7829457364341 L383.125,199.06976744186048" stroke="black" />
<path d="M383.125,199.06976744186048 L442.8125,197.71317829457365" stroke="black" />
<path d="M442.8125,197.71317829457365 L502.5,196.35658914728683" stroke="black" />
<path d="M502.5,196.35658914728683 L562.1875,195.0" stroke="black" />
<path d="M562.1875,195.0 L621.875,193.64341085271317" stroke="black" />
<path d="M621.875,193.64341085271317 L681.5625,190.93023255813955" stroke="black" />
<path d="M681.5625,190.93023255813955 L741.25,185.50387596899225" stroke="black" />
<path d="M741.25,185.50387596899225 L800.9375,174.65116279069767" stroke="black" />
<path d="M800.9375,174.65116279069767 L860.625,152.94573643410854" stroke="black" />
<path d="M860.625,152.94573643410854 L920.3125,109.53488372093022" stroke="black" />
<path d="M920.3125,109.53488372093022 L980.0,22.713178294573652" stroke="black" />
<path d="M25,370 L25,20.0" stroke="black" />
<path d="M25,370 L980,370" stroke="black" />
<path d="M20,20.0 L30,20.0" stroke="black" />
<text x="15" y="23.0" font-size="8" text-anchor="end">260</text>
<path d="M20,78.33333333333331 L30,78.33333333333331" stroke="black" />
<text x="15" y="81.33333333333331" font-size="8" text-anchor="end">174</text>
<path d="M20,136.66666666666669 L30,136.66666666666669" stroke="black" />
<text x="15" y="139.66666666666669" font-size="8" text-anchor="end">88</text>
<path d="M20,195.0 L30,195.0" stroke="black" />
<text x="15" y="198.0" font-size="8" text-anchor="end">2</text>
<path d="M20,253.33333333333334 L30,253.33333333333334" stroke="black" />
<text x="15" y="256.33333333333337" font-size="8" text-anchor="end">-84</text>
<path d="M20,311.6666666666667 L30,311.6666666666667" stroke="black" />
<text x="15" y="314.6666666666667" font-size="8" text-anchor="end">-170</text>
<path d="M20,370.0 L30,370.0" stroke="black" />
<text x="15" y="373.0" font-size="8" text-anchor="end">-256</text>
<path d="M25.0,365 L25.0,375" stroke="black" />
<text x="25.0" y="390" font-size="8" text-anchor="middle">0</text>
<path d="M84.6875,365 L84.6875,375" stroke="black" />
<text x="84.6875" y="390" font-size="8" text-anchor="middle">1</text>
<path d="M144.375,365 L144.375,375" stroke="black" />
<text x="144.375" y="390" font-size="8" text-anchor="middle">2</text>
<path d="M204.0625,365 L204.0625,375" stroke="black" />
<text x="204.0625" y="390" font-size="8" text-anchor="middle">3</text>
<path d="M263.75,365 L263.75,375" stroke="black" />
<text x="263.75" y="390" font-size="8" text-anchor="middle">4</text>
<path d="M323.4375,365 L323.4375,375" stroke="black" />
<text x="323.4375" y="390" font-size="8" text-anchor="middle">5</text>
<path d="M383.125,365 L383.125,375" stroke="black" />
<text x="383.125" y="390" font-size="8" text-anchor="middle">6</text>
<path d="M442.8125,365 L442.8125,375" stroke="black" />
<text x="442.8125" y="390" font-size="8" text-anchor="middle">7</text>
<path d="M502.5,365 L502.5,375" stroke="black" />
<text x="502.5" y="390" font-size="8" text-anchor="middle">8</text>
<path d="M562.1875,365 L562.1875,375" stroke="black" />
<text x="562.1875" y="390" font-size="8" text-anchor="middle">9</text>
<path d="M621.875,365 L621.875,375" stroke="black" />
<text x="621.875" y="390" font-size="8" text-anchor="middle">10</text>
<path d="M681.5625,365 L681.5625,375" stroke="black" />
<text x="681.5625" y="390" font-size="8" text-anchor="middle">11</text>
<path d="M741.25,365 L741.25,375" stroke="black" />
<text x="741.25" y="390" font-size="8" text-anchor="middle">12</text>
<path d="M800.9375,365 L800.9375,375" stroke="black" />
<text x="800.9375" y="390" font-size="8" text-anchor="middle">13</text>
<path d="M860.625,365 L860.625,375" stroke="black" />
<text x="860.625" y="390" font-size="8" text-anchor="middle">14</text>
<path d="M920.3125,365 L920.3125,375" stroke="black" />
<text x="920.3125" y="390" font-size="8" text-anchor="middle">15</text>
<path d="M980.0,365 L980.0,375" stroke="black" />
<text x="980.0" y="390" font-size="8" text-anchor="middle">16</text>
</svg>