<?xml version="1.0" encoding="UTF-8"?>
<svg xmlns="http://www.w3.org/2000/svg" xmlns:xlink="http://www.w3.org/1999/xlink" width="800" height="220" viewBox="0 0 800 220"><defs></defs>
<rect x="0" y="0" width="800" height="220" fill="white" />
<style>.main_line { stroke: black; stroke-width: 2; transition: stroke 0.2s, stroke-width 0.2s; }</style>
                <script>
                    window.onload = function() {
                        document.querySelectorAll(".main_line").forEach(line => {
                            line.addEventListener("mouseenter", function () {
                                document.querySelectorAll(".main_line").forEach(l => {
                                    l.style.stroke = "red";
                                    l.style.strokeWidth = "4px";
                                });
                            });
                            line.addEventListener("mouseleave", function () {
                                document.querySelectorAll(".main_line").forEach(l => {
                                    l.style.stroke = "black";
                                    l.style.strokeWidth = "2px";
                                });
                            });
                        });
                    };
                    </script><path class="main_line" d="M50.0,125.0 L171.66666666666669,95.0" />
<path class="main_line" d="M171.66666666666669,95.0 L293.33333333333337,65.0" />
<path class="main_line" d="M293.33333333333337,65.0 L415.00000000000006,50.0" />
<path class="main_line" d="M415.0,50.0 L536.6666666666666,140.0" />
<path class="main_line" d="M536.6666666666667,140.0 L658.3333333333334,125.0" />
<path class="main_line" d="M658.3333333333334,125.0 L780.0,110.0" />
<style>.x_axis { stroke: black; stroke-width: 2; transition: stroke 0.2s, stroke-width 0.2s; }</style>
                <path class="x_axis" d="M50,140 L50,20.0" />
<style>.y-axis { stroke: black; stroke-width: 2; transition: stroke 0.2s, stroke-width 0.2s; }</style>
                <path class="y-axis" d="M50,140 L780,140" />
<style>.tick_marker { stroke: black; stroke-width: 2; transition: stroke 0.2s, stroke-width 0.2s; }</style>
                <path class="tick_marker" d="M45,20.0 L55,20.0" />
<text x="40" y="23.0" font-size="8" text-anchor="end">9</text><path class="tick_marker" d="M45,80.0 L55,80.0" />
<text x="40" y="83.0" font-size="8" text-anchor="end">5</text><path class="tick_marker" d="M45,140.0 L55,140.0" />
<text x="40" y="143.0" font-size="8" text-anchor="end">1</text><path class="tick_marker" d="M50.0,135 L50.0,145" />
<text x="50.0" y="160" font-size="8" text-anchor="middle">0</text><path class="tick_marker" d="M171.66666666666669,135 L171.66666666666669,145" />
<text x="171.66666666666669" y="160" font-size="8" text-anchor="middle">1</text><path class="tick_marker" d="M293.33333333333337,135 L293.33333333333337,145" />
<text x="293.33333333333337" y="160" font-size="8" text-anchor="middle">2</text><path class="tick_marker" d="M415.0,135 L415.0,145" />
<text x="415.0" y="160" font-size="8" text-anchor="middle">3</text><path class="tick_marker" d="M536.6666666666667,135 L536.6666666666667,145" />
<text x="536.6666666666667" y="160" font-size="8" text-anchor="middle">4</text><path class="tick_marker" d="M658.3333333333334,135 L658.3333333333334,145" />
<text x="658.3333333333334" y="160" font-size="8" text-anchor="middle">5</text><path class="tick_marker" d="M780.0,135 L780.0,145" />
<text x="780.0" y="160" font-size="8" text-anchor="middle">6</text></svg>
